<?xml version="1.0" encoding="iso-8859-1"?>
<!-- Generator: Adobe Illustrator 25.2.0, SVG Export Plug-In . SVG Version: 6.00 Build 0)  -->
<svg version="1.1" id="Layer_1" xmlns="http://www.w3.org/2000/svg" xmlns:xlink="http://www.w3.org/1999/xlink" x="0px" y="0px"
	 width="56" height="56" viewBox="0 0 754.01 491.912" enable-background="new 0 0 754.01 491.912"
	 xml:space="preserve">
<g>
	<path fill="#006FB6" d="M272.639,207.234c-7.656-3.418-14.89-7.203-21.48-11.203c-8.28-5.057-15.828-10.62-22.418-16.523
		c-7.136-6.378-13.22-13.226-18.076-20.356c-5.818-8.534-9.898-17.507-12.152-26.631c-1.381-5.599-2.08-11.341-2.08-17.06
		c0-3.386,0.255-6.801,0.744-10.162c1.349-9.248,4.535-18.346,9.488-27.063c0.057-0.093,0.103-0.196,0.154-0.287
		c0.096-0.143,0.166-0.257,0.218-0.34c4.42-7.644,10.182-14.986,17.132-21.861c6.456-6.395,13.958-12.402,22.283-17.851
		c6.624-4.355,13.901-8.434,21.59-12.127c6.93-3.309,14.42-6.383,22.308-9.132c6.443-2.238,13.046-4.235,19.637-5.948
		c6.282-1.622,12.911-3.08,19.738-4.294c5.562-1.034,11.452-1.9,17.503-2.588c6.178-0.717,12.287-1.247,18.138-1.568
		c5.718-0.308,11.337-0.469,16.739-0.469h0.084c5.807,0,11.862,0.189,17.991,0.549c5.576,0.321,11.342,0.822,17.156,1.513
		l0.252,0.007c2.595,0.311,5.189,0.664,7.757,1.053c-6.043-1.139-12.222-2.085-18.511-2.83c-5.691-0.67-11.49-1.175-17.357-1.516
		C383.589,0.199,377.628,0,371.585,0c-0.021,0-0.072,0-0.092,0c-5.607,0-11.164,0.164-16.632,0.467
		c-6.111,0.347-12.143,0.856-18.06,1.549c-5.909,0.686-11.709,1.54-17.42,2.544c-6.712,1.214-13.27,2.637-19.655,4.295
		c-6.719,1.714-13.252,3.688-19.522,5.853c-7.765,2.715-15.178,5.727-22.199,9.064c-7.683,3.661-14.877,7.682-21.513,12.018
		c-8.298,5.402-15.731,11.337-22.161,17.679c-6.861,6.761-12.602,14.009-17.022,21.627c-0.108,0.198-0.269,0.411-0.391,0.634
		c-4.85,8.533-8.074,17.512-9.443,26.818c-0.494,3.323-0.732,6.68-0.732,10.067c0,5.763,0.7,11.426,2.062,16.926
		c2.287,9.221,6.397,18.049,12.095,26.373c4.882,7.125,10.926,13.9,17.985,20.184c6.592,5.871,14.055,11.337,22.304,16.354
		c6.654,4.025,13.803,7.734,21.376,11.118c6.307,2.815,12.937,5.384,19.816,7.704C278.819,209.904,275.607,208.563,272.639,207.234z
		"/>
	<g>
		<path fill="#D72E24" d="M547.175,114.868c0,50.973-73.866,92.283-164.986,92.283c-91.101,0-164.971-41.311-164.971-92.283
			c0-50.957,73.871-92.278,164.971-92.278C473.309,22.59,547.175,63.912,547.175,114.868z"/>
	</g>
	<path fill="#F9DC00" d="M374.115,94.751c0,0.065,0,0.149,0,0.221c0,0,0,0-0.014-0.014c-1.047-0.388-2.318-0.81-4.033-1.298
		c-2.236-0.594-4.253-1.047-6.339-1.403c-2.352-0.399-5.146-0.748-8.304-1.008c-4.678-0.415-9.508-0.608-14.793-0.608h-28.969
		c-0.61,0-1.201,0.019-1.76,0.051c-0.591,0.013-1.196,0.055-1.818,0.055c-14.164,0-20.446,4.197-23.203,15.481
		c-0.513,2.184-0.932,4.704-1.251,7.711l-1.176,10.817c-0.443,4.021-0.302,7.162-0.192,9.672c0.02,0.424,0.038,0.824,0.052,1.215
		c0.495,13.637,11.15,13.637,22.417,13.637c0.277,0,0.553,0.01,0.829,0.017c0.321,0.007,0.655,0.007,1.001,0.007h28.48
		c2.48,0,4.612-0.14,6.488-0.442c8.902-1.438,14.897-3.129,16.893-13.315c0.072-0.308,0.129-0.61,0.16-0.908l0.912-8.909h-54.5
		l0.823-9.841h66.673l-2.004,21.725c-0.387,3.372-0.983,6.252-1.843,8.802c-1.568,4.624-3.572,7.812-5.826,9.225
		c-1.812,1.149-4.15,2.014-7.13,2.65c-2.725,0.592-6.012,0.971-10.065,1.192c-3,0.166-6.539,0.263-11.51,0.287
		c-1.227,0.008-2.454,0.008-3.758,0.008h-32.072c-0.128,0-0.263,0-0.397-0.008h-0.064c-0.27-0.007-0.539-0.024-0.784-0.024h-0.103
		c-10.457-0.109-17.382-1.49-21.756-4.393c-3.288-2.172-5.473-6.626-6.14-12.54c-0.315-2.793-0.282-5.909,0.063-9.23l2.827-25.855
		l0.057-0.329v-0.134c0.681-6.077,2.139-10.84,4.452-14.604c3.031-4.908,7.162-8.106,12.66-9.763
		c4.811-1.436,10.978-2.148,18.821-2.148h40.14c2.078,0,4.104,0.076,6.57,0.243c2.748,0.176,5.228,0.504,7.392,0.945
		c2.029,0.426,3.816,0.96,5.344,1.645c1.787,0.785,3.201,1.74,4.15,2.833C372.978,88.051,373.896,91.019,374.115,94.751z
		 M554.791,145.836c-3.854,7.786-9.243,15.361-16.012,22.508c-6.461,6.822-14.016,13.149-22.508,18.84
		c-6.834,4.601-14.458,8.906-22.685,12.803c-7.516,3.586-15.5,6.808-23.709,9.586c-6.616,2.233-13.693,4.256-21.023,6.026
		c-7.096,1.695-14.182,3.127-21.067,4.219c-6.135,0.963-12.395,1.733-18.673,2.294c-6.332,0.57-12.781,0.951-19.207,1.109
		c-3.112,0.087-5.481,0.122-7.718,0.122c-3.225,0-6.513-0.059-9.808-0.165c-6.173-0.199-12.474-0.604-18.749-1.209
		c-6.018-0.582-12.012-1.354-17.857-2.298c-6.609-1.049-13.264-2.389-19.771-3.953c-6.621-1.586-13.135-3.401-19.334-5.42
		c-3.206-1.053-6.359-2.215-9.05-3.23c-4.773-1.765-8.903-3.441-12.623-5.105c-7.425-3.329-14.427-6.989-20.838-10.868
		c-7.971-4.872-15.23-10.21-21.563-15.893c-6.783-6.079-12.559-12.571-17.146-19.311c-5.433-7.969-9.229-16.296-11.324-24.754
		c-1.265-5.145-1.921-10.433-1.921-15.675c0-3.107,0.237-6.238,0.688-9.328c1.259-8.528,4.208-16.955,8.794-25.036l0.077-0.142
		c0.128-0.188,0.239-0.375,0.301-0.5c4.145-7.151,9.565-14.087,16.163-20.602c6.192-6.116,13.386-11.878,21.39-17.119
		c6.424-4.206,13.458-8.159,20.916-11.74c6.737-3.211,14.041-6.211,21.724-8.899c6.282-2.171,12.737-4.13,19.188-5.805
		c6.121-1.595,12.614-3.012,19.313-4.219c5.447-0.983,11.222-1.825,17.137-2.521c6.07-0.693,12.056-1.218,17.798-1.526
		c5.595-0.318,11.113-0.463,16.411-0.463h0.084c5.703,0,11.638,0.175,17.657,0.544c5.478,0.322,11.152,0.799,16.904,1.474l0.17,0.02
		c6.44,0.764,12.922,1.764,19.268,2.968c6.52,1.25,12.982,2.722,19.182,4.393c7.628,2.051,15.033,4.426,22.029,7.052
		c7.684,2.903,15.037,6.161,21.852,9.68c8.561,4.432,16.513,9.391,23.599,14.716c7.678,5.794,14.408,12.083,20.015,18.745
		c3.809,4.516,7.069,9.139,9.698,13.74c2.029,3.572,3.789,7.366,5.248,11.261c2.879,7.686,4.334,15.526,4.334,23.309
		c0,0.527-0.023,1.139-0.062,1.817c-0.02,0.336-0.039,0.69-0.045,1.04C561.613,127.725,559.166,136.987,554.791,145.836z
		 M552.953,114.903c0-8.205-1.785-16.415-5.272-24.404c-3.842-8.724-9.737-17.092-17.534-24.845
		c-6.109-6.072-13.342-11.768-21.538-16.921c-7.127-4.489-15.056-8.625-23.554-12.3c-6.506-2.786-13.424-5.346-20.579-7.587
		c-6.468-2.035-13.179-3.827-19.95-5.323c-5.473-1.233-11.145-2.305-16.86-3.212c-5.402-0.841-10.997-1.547-16.605-2.095
		c-4.844-0.467-9.717-0.803-14.498-1.035c-5.176-0.251-9.864-0.377-14.388-0.377c-0.129,0-0.262,0-0.404,0.01h-0.193
		c-4.291,0.02-8.792,0.138-13.794,0.367c-4.967,0.234-10.035,0.603-15.056,1.099c-5.051,0.497-9.97,1.105-14.641,1.82
		c-5.575,0.847-11.215,1.879-16.777,3.09c-5.832,1.263-11.567,2.71-17.039,4.301c-6.939,2.038-13.676,4.375-20.01,6.919
		c-7.252,2.892-14.094,6.085-20.279,9.482c-8.287,4.546-15.756,9.543-22.187,14.863c-7.283,6.018-13.398,12.572-18.203,19.497
		c-5.885,8.464-9.682,17.395-11.286,26.528c-0.432,2.398-0.694,4.882-0.797,7.55v0.006c-0.051,0.526-0.161,1.687-0.141,3.546h38.45
		l-0.783,9.815H212.49c0.373,1.913,0.873,4.037,1.509,6.381l0.385,1.191c2.622,8.045,6.956,15.857,12.899,23.22
		c5.145,6.378,11.44,12.39,18.679,17.837c6.469,4.9,13.792,9.468,21.763,13.574c6.237,3.23,12.891,6.184,19.765,8.786
		c6.257,2.391,12.892,4.561,19.758,6.458c5.724,1.599,11.472,2.997,17.06,4.13c5.461,1.108,11.221,2.087,17.118,2.915
		c5.485,0.764,10.476,1.323,15.204,1.722c5.099,0.431,10.443,0.753,15.903,0.907c3.379,0.113,6.544,0.158,9.64,0.158
		c1.336,0,2.629-0.013,3.965-0.037l1.193-0.034c5.439-0.087,10.911-0.307,16.29-0.694c5.363-0.391,10.732-0.923,15.974-1.585
		c6.262-0.791,12.479-1.793,18.427-2.963c6.418-1.27,12.738-2.768,18.803-4.423c7.591-2.114,15.022-4.586,22.068-7.355
		c7.914-3.104,15.41-6.592,22.231-10.386c8.876-4.922,16.868-10.464,23.728-16.432c0.084-0.077,0.174-0.155,0.277-0.247l9.129-9.042
		H421.19c-3.591,0-6.956-0.16-9.982-0.49c-4.523-0.499-8.08-1.385-10.875-2.69c-6.27-2.915-9.121-9.77-8.478-20.381l0.045-0.622
		c0.045-0.702,0.076-1.372,0.133-2.012l2.834-26.002l0.008-0.078c0.031-0.134,0.049-0.271,0.082-0.448l0.014-0.125
		c0.115-1.032,0.264-2.034,0.379-2.692c0.301-1.779,0.699-3.485,1.17-5.092c1.945-6.423,5.182-10.707,10.166-13.463
		c4.285-2.359,8.209-3.712,12.384-4.26c3.379-0.453,7.246-0.674,11.786-0.674h40.133c9.268,0,15.859,1.061,20.117,3.238
		c3.83,1.94,5.672,5.317,5.935,11.06c-1.15-0.448-2.396-0.859-3.705-1.247c-7.299-2.106-17.318-3.157-29.786-3.157h-28.956
		c-0.686,0-1.361-0.008-2.041-0.015c-0.676,0-1.355,0-2.037,0c-6.931,0-14.084,0.591-18.818,7.715
		c-1.711,2.589-2.885,5.629-3.682,9.583c-0.373,1.827-0.643,3.779-0.879,5.982l-1.189,10.841c-0.057,0.476-0.096,0.947-0.135,1.396
		l-0.051,0.565c-0.193,2.329-0.129,4.25-0.084,5.94c0.045,0.881,0.07,1.656,0.045,2.352c-0.104,4.426,1.053,7.873,3.398,10.282
		c3.564,3.664,9.025,4.165,13.894,4.152c1.226,0,2.396-0.035,3.559-0.066c1.027-0.018,2.016-0.065,2.915-0.065h109.291l3.558-0.007
		l1.701-2.876c5.216-8.968,8.173-18.395,8.749-27.962l0.027-0.441C552.885,117.03,552.953,116.021,552.953,114.903z"/>
	<path fill="#FFFFFF" d="M379.882,94.418c-0.289-5.173-1.649-9.162-4.013-11.852c-1.555-1.721-3.604-3.153-6.174-4.286
		c-1.9-0.835-4.083-1.509-6.513-2.003c-2.422-0.502-5.17-0.853-8.175-1.064c-2.596-0.164-4.742-0.258-6.949-0.258h-40.14
		c-8.421,0-15.127,0.795-20.491,2.406c-6.81,2.052-12.167,6.189-15.923,12.276c-2.77,4.511-4.509,10.124-5.287,17.093l-2.865,26.226
		c-0.392,3.741-0.417,7.279-0.064,10.497c0.88,7.771,3.892,13.546,8.697,16.722c5.357,3.546,13.315,5.26,25.007,5.363h0.295
		c0.109,0,0.218,0.012,0.359,0.02h0.065c0.193,0,0.379,0.006,0.571,0.006h32.072c1.323,0,2.551,0,3.79-0.006
		c5.074-0.038,8.716-0.123,11.8-0.297c4.354-0.235,7.93-0.665,10.952-1.314c3.66-0.775,6.601-1.898,9.011-3.412
		c3.435-2.154,6.183-6.289,8.208-12.263c1.008-2.954,1.695-6.245,2.119-10.079l2.613-28.086h-78.368l-1.766,21.417h54.379
		l-0.264,2.501c0,0.057-0.008,0.106-0.027,0.12l-0.051,0.234c-1.215,6.351-3.531,7.387-12.145,8.773
		c-1.574,0.259-3.399,0.365-5.564,0.365h-28.48c-0.302,0-0.579,0-0.861,0c-0.327-0.01-0.636-0.019-0.97-0.019
		c-13.887,0-16.393-1.207-16.631-8.079c-0.031-0.394-0.044-0.812-0.062-1.24c-0.109-2.448-0.225-5.217,0.153-8.792l1.196-10.82
		c0.282-2.759,0.654-5.048,1.129-6.968c1.856-7.665,4.837-11.063,17.569-11.063c0.752,0,1.444-0.037,2.061-0.068
		c0.521-0.027,1.015-0.045,1.517-0.045h28.969c5.126,0,9.795,0.193,14.305,0.591c2.98,0.26,5.619,0.571,7.824,0.95
		c1.9,0.322,3.736,0.731,5.754,1.276c1.515,0.444,2.626,0.791,3.48,1.114c1.094,0.435,2.031,0.874,2.84,1.336l4.779,2.658
		l0.258-5.454C379.952,97.243,379.952,95.797,379.882,94.418z M374.101,94.958c-1.047-0.388-2.318-0.81-4.033-1.298
		c-2.236-0.594-4.253-1.047-6.339-1.403c-2.352-0.399-5.146-0.748-8.304-1.008c-4.678-0.415-9.508-0.608-14.793-0.608h-28.969
		c-0.61,0-1.201,0.019-1.76,0.051c-0.591,0.013-1.196,0.055-1.818,0.055c-14.164,0-20.446,4.197-23.203,15.481
		c-0.513,2.184-0.932,4.704-1.251,7.711l-1.176,10.817c-0.443,4.021-0.302,7.162-0.192,9.672c0.02,0.424,0.038,0.824,0.052,1.215
		c0.495,13.637,11.15,13.637,22.417,13.637c0.277,0,0.553,0.01,0.829,0.017c0.321,0.007,0.655,0.007,1.001,0.007h28.48
		c2.48,0,4.612-0.14,6.488-0.442c8.902-1.438,14.897-3.129,16.893-13.315c0.072-0.308,0.129-0.61,0.16-0.908l0.912-8.909h-54.5
		l0.823-9.841h66.673l-2.004,21.725c-0.387,3.372-0.983,6.252-1.843,8.802c-1.568,4.624-3.572,7.812-5.826,9.225
		c-1.812,1.149-4.15,2.014-7.13,2.65c-2.725,0.592-6.012,0.971-10.065,1.192c-3,0.166-6.539,0.263-11.51,0.287
		c-1.227,0.008-2.454,0.008-3.758,0.008h-32.072c-0.128,0-0.263,0-0.397-0.008h-0.064c-0.27-0.007-0.539-0.024-0.784-0.024h-0.103
		c-10.457-0.109-17.382-1.49-21.756-4.393c-3.288-2.172-5.473-6.626-6.14-12.54c-0.315-2.793-0.282-5.909,0.063-9.23l2.827-25.855
		l0.057-0.329v-0.134c0.681-6.077,2.139-10.84,4.452-14.604c3.031-4.908,7.162-8.106,12.66-9.763
		c4.811-1.436,10.978-2.148,18.821-2.148h40.14c2.078,0,4.104,0.076,6.57,0.243c2.748,0.176,5.228,0.504,7.392,0.945
		c2.029,0.426,3.816,0.96,5.344,1.645c1.787,0.785,3.201,1.74,4.15,2.833c1.465,1.638,2.383,4.606,2.602,8.338
		c0,0.065,0,0.149,0,0.221C374.115,94.972,374.115,94.972,374.101,94.958z M530.146,65.654
		c-6.109-6.072-13.342-11.768-21.538-16.921c-7.127-4.489-15.056-8.625-23.554-12.3c-6.506-2.786-13.424-5.346-20.579-7.587
		c-6.468-2.035-13.179-3.827-19.95-5.323c-5.473-1.233-11.145-2.305-16.86-3.212c-5.402-0.841-10.997-1.547-16.605-2.095
		c-4.844-0.467-9.717-0.803-14.498-1.035c-5.158-0.251-9.864-0.377-14.388-0.377c-0.129,0-0.262,0-0.404,0.01h-0.193
		c-4.291,0-8.792,0.138-13.794,0.367c-4.967,0.234-10.023,0.603-15.056,1.099c-5.051,0.497-9.97,1.105-14.641,1.82
		c-5.575,0.847-11.215,1.879-16.777,3.09c-5.832,1.263-11.567,2.71-17.039,4.301c-6.939,2.038-13.676,4.364-20.01,6.919
		c-7.252,2.892-14.094,6.085-20.279,9.482c-8.287,4.546-15.756,9.543-22.187,14.863c-7.283,6.018-13.398,12.572-18.203,19.497
		c-5.885,8.464-9.682,17.395-11.286,26.528c-0.432,2.398-0.694,4.882-0.797,7.55v0.006c-0.051,0.526-0.161,1.687-0.141,3.546h38.45
		l-0.783,9.815H212.49c0.373,1.913,0.873,4.037,1.509,6.381l0.385,1.191c2.622,8.045,6.956,15.857,12.899,23.22
		c5.145,6.378,11.44,12.39,18.679,17.837c6.469,4.9,13.792,9.468,21.763,13.574c6.237,3.23,12.891,6.184,19.765,8.786
		c6.257,2.378,12.892,4.561,19.758,6.458c5.724,1.599,11.472,2.997,17.06,4.13c5.461,1.108,11.221,2.087,17.118,2.915
		c5.485,0.764,10.476,1.323,15.204,1.722c5.099,0.431,10.443,0.753,15.903,0.907c3.402,0.113,6.544,0.158,9.64,0.158
		c1.336,0,2.629-0.013,3.965-0.037l1.193-0.034c5.439-0.087,10.911-0.307,16.29-0.694c5.363-0.391,10.732-0.923,15.974-1.585
		c6.262-0.791,12.479-1.793,18.427-2.963c6.418-1.27,12.738-2.768,18.803-4.423c7.591-2.114,15.022-4.586,22.068-7.355
		c7.914-3.104,15.41-6.605,22.231-10.386c8.876-4.922,16.868-10.464,23.728-16.432c0.084-0.077,0.174-0.155,0.277-0.247l9.129-9.042
		H421.19c-3.591,0-6.956-0.16-9.982-0.49c-4.523-0.499-8.08-1.385-10.875-2.69c-6.27-2.915-9.121-9.77-8.478-20.381l0.045-0.622
		c0.045-0.702,0.076-1.372,0.133-2.012l2.834-26.002l0.008-0.078c0.031-0.134,0.049-0.271,0.082-0.448l0.014-0.125
		c0.115-1.032,0.264-2.034,0.379-2.692c0.301-1.779,0.699-3.485,1.17-5.092c1.959-6.423,5.182-10.707,10.166-13.463
		c4.285-2.359,8.209-3.712,12.384-4.26c3.379-0.453,7.246-0.674,11.786-0.674h40.133c9.268,0,15.859,1.061,20.117,3.238
		c3.83,1.94,5.672,5.317,5.935,11.06c-1.15-0.456-2.396-0.859-3.705-1.247c-7.299-2.106-17.318-3.157-29.786-3.157h-28.956
		c-0.686,0-1.361-0.015-2.041-0.015c-0.676,0-1.355,0-2.037,0c-6.931,0-14.084,0.591-18.818,7.715
		c-1.711,2.589-2.885,5.629-3.682,9.583c-0.373,1.827-0.643,3.779-0.879,5.982l-1.189,10.841c-0.057,0.476-0.096,0.947-0.135,1.396
		l-0.051,0.565c-0.193,2.329-0.129,4.25-0.084,5.94c0.045,0.881,0.07,1.656,0.045,2.352c-0.104,4.426,1.053,7.873,3.398,10.282
		c3.564,3.664,9.025,4.152,13.894,4.152c1.226,0,2.396-0.035,3.559-0.066c1.027-0.018,2.016-0.065,2.915-0.065h109.291l3.558-0.007
		l1.701-2.876c5.216-8.968,8.173-18.395,8.749-27.962l0.027-0.441c0.07-0.988,0.139-2.013,0.139-3.115
		c0-8.205-1.785-16.415-5.272-24.404C543.839,81.775,537.943,73.407,530.146,65.654z M547.046,117.625l-0.025,0.47
		c-0.529,8.691-3.227,17.236-7.979,25.413l-0.02,0.01H429.488c-0.983,0-2.003,0.046-3.091,0.066
		c-1.09,0.031-2.252,0.058-3.383,0.058c-3.457,0-7.675-0.278-9.751-2.396c-1.238-1.277-1.822-3.271-1.748-6.104
		c0.006-0.878-0.006-1.759-0.057-2.692c-0.039-1.526-0.109-3.263,0.062-5.238l0.047-0.581c0.039-0.409,0.064-0.816,0.115-1.244
		l1.201-10.869c0.213-2.019,0.477-3.798,0.803-5.468c0.648-3.178,1.543-5.57,2.846-7.521c2.864-4.336,6.964-5.131,13.983-5.131
		c0.662,0,1.324,0.01,2.004,0.01c0.68,0.007,1.383,0.015,2.074,0.015h28.956c11.929,0,21.415,0.999,28.198,2.939
		c2.352,0.669,4.395,1.48,6.045,2.385l4.753,2.606l0.27-5.413c0.006-0.35,0.017-0.682,0.033-1.021
		c0.172-6.117-0.572-14.757-9.116-19.091c-5.094-2.601-12.543-3.873-22.744-3.873h-40.133c-4.81,0-8.913,0.235-12.549,0.717
		c-4.895,0.659-9.488,2.232-14.42,4.954c-6.392,3.532-10.496,8.884-12.898,16.868c-0.541,1.819-0.996,3.76-1.355,5.794
		c-0.103,0.726-0.277,1.811-0.406,2.911l-0.006,0.046c-0.018,0.096-0.031,0.186-0.045,0.312c-0.025,0.131-0.059,0.276-0.064,0.411
		l-2.806,25.983c-0.104,0.793-0.147,1.531-0.18,2.325l-0.045,0.605c-1.002,16.458,5.87,23.204,11.811,25.965
		c3.385,1.572,7.516,2.616,12.68,3.191c3.252,0.349,6.828,0.528,10.618,0.528h98.858c-6.338,5.396-13.653,10.393-21.723,14.877
		c-6.603,3.666-13.861,7.041-21.551,10.063c-6.854,2.681-14.099,5.091-21.498,7.163c-5.914,1.622-12.1,3.078-18.365,4.312
		c-5.838,1.153-11.913,2.132-18.04,2.901c-5.138,0.655-10.407,1.162-15.648,1.553c-5.281,0.367-10.65,0.605-15.981,0.701
		l-1.215,0.015c-4.277,0.07-8.554,0.043-13.314-0.112c-5.343-0.171-10.587-0.466-15.603-0.9c-4.639-0.391-9.512-0.935-14.881-1.682
		c-5.781-0.811-11.42-1.754-16.759-2.852c-5.465-1.115-11.061-2.483-16.662-4.039c-6.7-1.852-13.181-3.972-19.264-6.288
		c-6.675-2.521-13.13-5.403-19.162-8.526c-7.683-3.951-14.729-8.342-20.934-13.041c-6.86-5.183-12.809-10.855-17.67-16.871
		c-5.493-6.803-9.494-13.98-11.884-21.361h34.468l1.721-21.391h-38.65c0.135-1.49,0.309-2.92,0.566-4.31
		c1.463-8.297,4.938-16.451,10.342-24.24c4.509-6.481,10.258-12.657,17.124-18.328c6.167-5.08,13.324-9.866,21.294-14.241
		c5.993-3.3,12.59-6.389,19.636-9.196c6.181-2.473,12.732-4.73,19.501-6.719c5.333-1.56,10.94-2.983,16.637-4.209
		c5.46-1.194,10.983-2.202,16.418-3.032c4.58-0.686,9.398-1.296,14.349-1.783c4.914-0.475,9.872-0.841,14.747-1.066
		c4.908-0.234,9.328-0.354,13.591-0.36l0.252-0.009c0.102,0,0.186-0.005,0.281-0.005c4.432,0,9.044,0.114,14.124,0.374
		c4.67,0.209,9.457,0.552,14.205,1.007c5.483,0.532,10.95,1.228,16.263,2.076c5.581,0.865,11.138,1.92,16.507,3.126
		c6.615,1.465,13.166,3.194,19.474,5.178c6.95,2.192,13.7,4.678,20.015,7.405c8.223,3.553,15.887,7.538,22.784,11.873
		c7.81,4.925,14.728,10.349,20.522,16.11c7.275,7.258,12.769,15.031,16.31,23.066c3.184,7.273,4.797,14.69,4.797,22.099
		C547.175,115.821,547.11,116.696,547.046,117.625z M563.238,90.127c-1.568-4.182-3.469-8.241-5.646-12.097
		c-2.814-4.912-6.27-9.834-10.317-14.62c-5.867-6.961-12.913-13.58-20.942-19.622c-7.356-5.544-15.572-10.665-24.437-15.232
		c-7.013-3.636-14.552-6.986-22.454-9.957c-7.168-2.71-14.774-5.131-22.57-7.23c-6.354-1.715-12.943-3.221-19.605-4.492
		c-6.461-1.228-13.077-2.262-19.678-3.039l-0.252-0.007c-5.815-0.691-11.58-1.192-17.156-1.513
		c-6.129-0.359-12.185-0.549-17.991-0.549h-0.084c-5.402,0-11.021,0.161-16.739,0.469c-5.852,0.321-11.961,0.851-18.138,1.568
		c-6.051,0.689-11.941,1.554-17.503,2.588c-6.827,1.214-13.456,2.672-19.738,4.294c-6.591,1.713-13.194,3.709-19.637,5.948
		c-7.888,2.749-15.378,5.824-22.308,9.132c-7.689,3.692-14.967,7.771-21.59,12.127c-8.325,5.449-15.827,11.456-22.283,17.851
		c-6.95,6.875-12.712,14.217-17.132,21.861c-0.051,0.083-0.122,0.197-0.218,0.34c-0.051,0.091-0.097,0.194-0.154,0.287
		c-4.954,8.717-8.139,17.815-9.488,27.063c-0.489,3.361-0.744,6.776-0.744,10.162c0,5.719,0.699,11.461,2.08,17.06
		c2.254,9.124,6.334,18.098,12.152,26.631c4.856,7.131,10.94,13.978,18.076,20.356c6.591,5.903,14.138,11.466,22.418,16.523
		c6.59,4.008,13.824,7.785,21.48,11.203c3.835,1.722,8.062,3.443,12.957,5.258c2.743,1.022,5.961,2.212,9.269,3.302
		c6.353,2.068,13.02,3.939,19.79,5.543c6.648,1.6,13.438,2.957,20.208,4.047c5.941,0.966,12.082,1.74,18.205,2.34
		c6.402,0.628,12.839,1.033,19.12,1.238c3.355,0.115,6.718,0.168,10.001,0.168c2.279,0,4.715-0.048,7.86-0.127
		c6.566-0.16,13.139-0.547,19.58-1.13c6.398-0.566,12.814-1.354,19.058-2.34c7.038-1.117,14.284-2.562,21.53-4.317
		c7.496-1.805,14.747-3.891,21.51-6.173c8.422-2.838,16.617-6.16,24.352-9.818c8.472-4.03,16.365-8.492,23.438-13.246
		c8.812-5.924,16.713-12.52,23.464-19.655c7.161-7.563,12.892-15.611,16.995-23.924c4.729-9.564,7.373-19.598,7.824-29.828
		c0.031-0.328,0.031-0.658,0.059-1.016c0.045-0.681,0.062-1.399,0.062-2.096C567.92,106.988,566.355,98.465,563.238,90.127z
		 M562.082,117.277c-0.02,0.336-0.039,0.69-0.045,1.04c-0.424,9.407-2.871,18.669-7.246,27.519
		c-3.854,7.786-9.243,15.361-16.012,22.508c-6.461,6.822-14.016,13.149-22.508,18.84c-6.834,4.601-14.458,8.906-22.685,12.803
		c-7.516,3.586-15.5,6.808-23.709,9.586c-6.616,2.233-13.693,4.256-21.023,6.026c-7.096,1.695-14.182,3.127-21.067,4.219
		c-6.135,0.963-12.395,1.733-18.673,2.294c-6.318,0.57-12.781,0.951-19.207,1.109c-3.112,0.087-5.481,0.122-7.718,0.122
		c-3.225,0-6.513-0.059-9.808-0.174c-6.173-0.19-12.474-0.595-18.749-1.2c-6.018-0.582-12.012-1.354-17.857-2.298
		c-6.609-1.055-13.264-2.389-19.771-3.953c-6.621-1.586-13.135-3.401-19.334-5.42c-3.206-1.053-6.359-2.215-9.05-3.23
		c-4.773-1.765-8.903-3.441-12.61-5.107c-7.438-3.327-14.44-6.987-20.851-10.866c-7.971-4.872-15.23-10.21-21.563-15.893
		c-6.783-6.079-12.559-12.571-17.146-19.311c-5.433-7.969-9.229-16.296-11.324-24.754c-1.265-5.145-1.921-10.433-1.921-15.675
		c0-3.107,0.244-6.238,0.688-9.328c1.259-8.528,4.208-16.955,8.794-25.036l0.077-0.142c0.128-0.188,0.239-0.375,0.301-0.5
		c4.145-7.151,9.565-14.087,16.163-20.602c6.192-6.116,13.386-11.878,21.39-17.119c6.424-4.206,13.458-8.159,20.916-11.74
		c6.737-3.211,14.041-6.211,21.724-8.899c6.282-2.171,12.737-4.135,19.188-5.805c6.121-1.595,12.614-3.012,19.313-4.219
		c5.447-0.983,11.222-1.825,17.137-2.521c6.07-0.693,12.056-1.218,17.798-1.526c5.595-0.318,11.113-0.463,16.411-0.463h0.084
		c5.703,0,11.638,0.175,17.657,0.544c5.478,0.305,11.152,0.799,16.904,1.474l0.182,0.02c6.429,0.757,12.91,1.751,19.256,2.968
		c6.52,1.25,12.982,2.708,19.182,4.387c7.628,2.056,15.033,4.432,22.029,7.058c7.684,2.892,15.037,6.161,21.852,9.68
		c8.561,4.432,16.513,9.391,23.599,14.716c7.678,5.794,14.408,12.083,20.015,18.745c3.809,4.516,7.069,9.134,9.698,13.74
		c2.029,3.572,3.789,7.366,5.248,11.261c2.879,7.686,4.334,15.526,4.334,23.309C562.145,115.987,562.121,116.599,562.082,117.277z"
		/>
	<path fill="#D72E24" d="M111.523,252.454c-2.17-26.815-16.43-34.581-28.542-34.581c-17.282,0-26.793,11.232-26.793,30.686
		c0,53.168,108.93,78.666,108.93,163.391c0,51.438-34.586,79.962-84.729,79.962c-49.706,0-78.233-39.778-80.389-86.454l51.002-7.354
		c2.155,31.548,14.696,47.118,31.978,47.118c18.594,0,31.127-9.935,31.127-28.52c0-61.825-108.93-78.245-108.93-167.711
		c0-49.712,30.26-77.81,83.003-77.81c20.734,0,37.164,7.356,49.705,19.455c13.831,13.401,22.039,32.85,24.624,56.188
		L111.523,252.454z"/>
	<path fill="#D72E24" d="M350.357,382.683l-0.423,26.229c0,53.596-31.119,82.999-82.126,82.999
		c-51.01,0-82.129-29.403-82.129-82.999l1.127-199.099l52.667,21.667l-0.206,179.592c0,22.908,9.089,34.149,28.542,34.149
		c19.444,0,28.526-11.241,28.526-34.149l0.471-164.592l54,9.332c0.429,0.854,40.185,4.173,40.185,4.173v9.791
		c-28.534,1.292-41.12-0.675-41.12,37.368L350.357,382.683z"/>
	<path fill="#D72E24" d="M563.479,411.073l-0.443,36.328c0,28.522,17.282,29.373,47.549,30.662v10.822c0,0-45.822,0-47.549-1.303
		h-46.687l-68.274-182.09l-0.867,4.277v177.812h-48.422v-228.19l78.682-14.245l36.287,108.875h0.875V232.416l48.406-17.68
		L563.479,411.073z"/>
	<path fill="#D72E24" d="M700.418,252.454c-2.164-26.815-16.422-34.581-28.529-34.581c-17.285,0-26.789,11.232-26.789,30.686
		c0,53.168,108.91,78.666,108.91,163.391c0,51.438-34.576,79.962-84.719,79.962c-49.696,0-78.228-39.778-80.385-86.454l51-7.354
		c2.164,31.548,14.697,47.118,31.982,47.118c18.596,0,31.107-9.935,31.107-28.52c0-61.825-108.912-78.245-108.912-167.711
		c0-49.712,30.259-77.81,82.986-77.81c20.746,0,37.178,7.356,49.717,19.455c13.83,13.401,22.045,32.85,24.631,56.188
		L700.418,252.454z"/>
</g>
<g>
</g>
</svg>
